<mxfile host="app.diagrams.net" modified="2024-05-13T05:24:52.080Z" agent="Mozilla/5.0 (Windows NT 10.0; Win64; x64) AppleWebKit/537.36 (KHTML, like Gecko) Chrome/124.0.0.0 Safari/537.36" etag="40D2JopMB6mzRuRyICk8" version="24.4.0" type="google">
  <diagram name="Halaman-1" id="iqYMIbAccCqJsE6BLYXz">
    <mxGraphModel grid="1" page="1" gridSize="10" guides="1" tooltips="1" connect="1" arrows="1" fold="1" pageScale="1" pageWidth="827" pageHeight="1169" math="0" shadow="0">
      <root>
        <mxCell id="0" />
        <mxCell id="1" parent="0" />
        <mxCell id="2MP1ZzmQzvETcW9dQaeT-1" value="siswa" style="rounded=0;whiteSpace=wrap;html=1;" vertex="1" parent="1">
          <mxGeometry x="150" y="140" width="120" height="40" as="geometry" />
        </mxCell>
        <mxCell id="2MP1ZzmQzvETcW9dQaeT-9" value="meminjam" style="rhombus;whiteSpace=wrap;html=1;" vertex="1" parent="1">
          <mxGeometry x="359" y="145" width="110" height="50" as="geometry" />
        </mxCell>
        <mxCell id="2MP1ZzmQzvETcW9dQaeT-12" value="" style="html=1;verticalAlign=bottom;endArrow=block;curved=0;rounded=0;entryX=0;entryY=0.5;entryDx=0;entryDy=0;" edge="1" parent="1" target="2MP1ZzmQzvETcW9dQaeT-9">
          <mxGeometry width="80" relative="1" as="geometry">
            <mxPoint x="270" y="169.5" as="sourcePoint" />
            <mxPoint x="350" y="169.5" as="targetPoint" />
          </mxGeometry>
        </mxCell>
        <mxCell id="2MP1ZzmQzvETcW9dQaeT-13" value="" style="html=1;verticalAlign=bottom;endArrow=block;curved=0;rounded=0;" edge="1" parent="1">
          <mxGeometry width="80" relative="1" as="geometry">
            <mxPoint x="469" y="170" as="sourcePoint" />
            <mxPoint x="549" y="170" as="targetPoint" />
            <mxPoint as="offset" />
          </mxGeometry>
        </mxCell>
        <mxCell id="2MP1ZzmQzvETcW9dQaeT-14" value="barang" style="rounded=0;whiteSpace=wrap;html=1;" vertex="1" parent="1">
          <mxGeometry x="550" y="137.5" width="120" height="45" as="geometry" />
        </mxCell>
        <mxCell id="2MP1ZzmQzvETcW9dQaeT-23" value="" style="endArrow=none;html=1;rounded=0;" edge="1" parent="1">
          <mxGeometry width="50" height="50" relative="1" as="geometry">
            <mxPoint x="190" y="140" as="sourcePoint" />
            <mxPoint x="130" y="70" as="targetPoint" />
          </mxGeometry>
        </mxCell>
        <mxCell id="2MP1ZzmQzvETcW9dQaeT-24" value="username" style="ellipse;whiteSpace=wrap;html=1;" vertex="1" parent="1">
          <mxGeometry x="100" y="30" width="60" height="60" as="geometry" />
        </mxCell>
        <mxCell id="2MP1ZzmQzvETcW9dQaeT-25" value="" style="endArrow=none;html=1;rounded=0;entryX=0;entryY=0;entryDx=0;entryDy=0;" edge="1" parent="1">
          <mxGeometry width="50" height="50" relative="1" as="geometry">
            <mxPoint x="190" y="140" as="sourcePoint" />
            <mxPoint x="120.25126265847075" y="-74.14213562373106" as="targetPoint" />
          </mxGeometry>
        </mxCell>
        <mxCell id="2MP1ZzmQzvETcW9dQaeT-27" value="" style="endArrow=none;html=1;rounded=0;" edge="1" parent="1">
          <mxGeometry width="50" height="50" relative="1" as="geometry">
            <mxPoint x="190" y="140" as="sourcePoint" />
            <mxPoint x="190" y="10" as="targetPoint" />
          </mxGeometry>
        </mxCell>
        <mxCell id="2MP1ZzmQzvETcW9dQaeT-29" value="id" style="ellipse;whiteSpace=wrap;html=1;" vertex="1" parent="1">
          <mxGeometry x="90" y="-90" width="70" height="50" as="geometry" />
        </mxCell>
        <mxCell id="2MP1ZzmQzvETcW9dQaeT-32" value="pasword" style="ellipse;whiteSpace=wrap;html=1;" vertex="1" parent="1">
          <mxGeometry x="160" y="-10" width="60" height="50" as="geometry" />
        </mxCell>
        <mxCell id="2MP1ZzmQzvETcW9dQaeT-34" value="" style="endArrow=none;html=1;rounded=0;" edge="1" parent="1">
          <mxGeometry width="50" height="50" relative="1" as="geometry">
            <mxPoint x="190" y="140" as="sourcePoint" />
            <mxPoint x="250" y="20" as="targetPoint" />
          </mxGeometry>
        </mxCell>
        <mxCell id="2MP1ZzmQzvETcW9dQaeT-35" value="" style="endArrow=none;html=1;rounded=0;" edge="1" parent="1">
          <mxGeometry width="50" height="50" relative="1" as="geometry">
            <mxPoint x="190" y="140" as="sourcePoint" />
            <mxPoint x="330" y="-10" as="targetPoint" />
          </mxGeometry>
        </mxCell>
        <mxCell id="2MP1ZzmQzvETcW9dQaeT-36" value="status" style="ellipse;whiteSpace=wrap;html=1;" vertex="1" parent="1">
          <mxGeometry x="230" y="-30" width="40" height="60" as="geometry" />
        </mxCell>
        <mxCell id="2MP1ZzmQzvETcW9dQaeT-39" value="role" style="ellipse;whiteSpace=wrap;html=1;" vertex="1" parent="1">
          <mxGeometry x="280" y="-30" width="70" height="50" as="geometry" />
        </mxCell>
        <mxCell id="2MP1ZzmQzvETcW9dQaeT-42" value="" style="endArrow=none;html=1;rounded=0;exitX=0.365;exitY=0.026;exitDx=0;exitDy=0;exitPerimeter=0;" edge="1" parent="1">
          <mxGeometry width="50" height="50" relative="1" as="geometry">
            <mxPoint x="593.8" y="137.50000000000009" as="sourcePoint" />
            <mxPoint x="590" y="-10" as="targetPoint" />
          </mxGeometry>
        </mxCell>
        <mxCell id="2MP1ZzmQzvETcW9dQaeT-44" value="" style="endArrow=none;html=1;rounded=0;" edge="1" parent="1" source="2MP1ZzmQzvETcW9dQaeT-14">
          <mxGeometry width="50" height="50" relative="1" as="geometry">
            <mxPoint x="580" y="140" as="sourcePoint" />
            <mxPoint x="530" y="60" as="targetPoint" />
          </mxGeometry>
        </mxCell>
        <mxCell id="2MP1ZzmQzvETcW9dQaeT-45" value="" style="endArrow=none;html=1;rounded=0;exitX=0.388;exitY=0.011;exitDx=0;exitDy=0;exitPerimeter=0;" edge="1" parent="1" source="2MP1ZzmQzvETcW9dQaeT-14">
          <mxGeometry width="50" height="50" relative="1" as="geometry">
            <mxPoint x="600" y="130" as="sourcePoint" />
            <mxPoint x="640" y="50" as="targetPoint" />
          </mxGeometry>
        </mxCell>
        <mxCell id="2MP1ZzmQzvETcW9dQaeT-47" value="" style="endArrow=classic;html=1;rounded=0;entryX=0;entryY=0.5;entryDx=0;entryDy=0;exitX=0.873;exitY=0.018;exitDx=0;exitDy=0;exitPerimeter=0;" edge="1" parent="1" source="2MP1ZzmQzvETcW9dQaeT-1" target="2MP1ZzmQzvETcW9dQaeT-48">
          <mxGeometry width="50" height="50" relative="1" as="geometry">
            <mxPoint x="230" y="140" as="sourcePoint" />
            <mxPoint x="350" y="90" as="targetPoint" />
            <Array as="points">
              <mxPoint x="270" y="95" />
            </Array>
          </mxGeometry>
        </mxCell>
        <mxCell id="2MP1ZzmQzvETcW9dQaeT-48" value="melihat" style="rhombus;whiteSpace=wrap;html=1;" vertex="1" parent="1">
          <mxGeometry x="350" y="70" width="110" height="50" as="geometry" />
        </mxCell>
        <mxCell id="2MP1ZzmQzvETcW9dQaeT-49" value="" style="endArrow=classic;html=1;rounded=0;exitX=1;exitY=0.5;exitDx=0;exitDy=0;entryX=0;entryY=0;entryDx=0;entryDy=0;" edge="1" parent="1" source="2MP1ZzmQzvETcW9dQaeT-48" target="2MP1ZzmQzvETcW9dQaeT-14">
          <mxGeometry width="50" height="50" relative="1" as="geometry">
            <mxPoint x="550" y="60" as="sourcePoint" />
            <mxPoint x="520" y="120" as="targetPoint" />
            <Array as="points">
              <mxPoint x="520" y="95" />
            </Array>
          </mxGeometry>
        </mxCell>
        <mxCell id="2MP1ZzmQzvETcW9dQaeT-50" value="" style="endArrow=none;html=1;rounded=0;" edge="1" parent="1">
          <mxGeometry width="50" height="50" relative="1" as="geometry">
            <mxPoint x="600" y="137.5" as="sourcePoint" />
            <mxPoint x="720" y="90" as="targetPoint" />
          </mxGeometry>
        </mxCell>
        <mxCell id="2MP1ZzmQzvETcW9dQaeT-51" value="" style="endArrow=classic;html=1;rounded=0;exitX=0.5;exitY=0;exitDx=0;exitDy=0;entryX=0.75;entryY=1;entryDx=0;entryDy=0;" edge="1" parent="1" source="2MP1ZzmQzvETcW9dQaeT-52" target="2MP1ZzmQzvETcW9dQaeT-14">
          <mxGeometry width="50" height="50" relative="1" as="geometry">
            <mxPoint x="650" y="250" as="sourcePoint" />
            <mxPoint x="700" y="190" as="targetPoint" />
          </mxGeometry>
        </mxCell>
        <mxCell id="2MP1ZzmQzvETcW9dQaeT-52" value="mengelola" style="rhombus;whiteSpace=wrap;html=1;" vertex="1" parent="1">
          <mxGeometry x="590" y="320" width="110" height="50" as="geometry" />
        </mxCell>
        <mxCell id="2MP1ZzmQzvETcW9dQaeT-53" value="admin" style="rounded=0;whiteSpace=wrap;html=1;" vertex="1" parent="1">
          <mxGeometry x="450" y="410" width="120" height="40" as="geometry" />
        </mxCell>
        <mxCell id="2MP1ZzmQzvETcW9dQaeT-54" value="" style="endArrow=classic;html=1;rounded=0;exitX=1;exitY=0.5;exitDx=0;exitDy=0;entryX=0.5;entryY=1;entryDx=0;entryDy=0;" edge="1" parent="1" target="2MP1ZzmQzvETcW9dQaeT-52" source="2MP1ZzmQzvETcW9dQaeT-53">
          <mxGeometry width="50" height="50" relative="1" as="geometry">
            <mxPoint x="642.5" y="370" as="sourcePoint" />
            <mxPoint x="643" y="380" as="targetPoint" />
            <Array as="points">
              <mxPoint x="645" y="430" />
            </Array>
          </mxGeometry>
        </mxCell>
        <mxCell id="2MP1ZzmQzvETcW9dQaeT-57" value="" style="endArrow=none;html=1;rounded=0;exitX=0.5;exitY=1;exitDx=0;exitDy=0;entryX=0;entryY=0;entryDx=0;entryDy=0;" edge="1" parent="1" source="QI9Rnf0cK9D8R6iDUaha-12" target="2MP1ZzmQzvETcW9dQaeT-58">
          <mxGeometry width="50" height="50" relative="1" as="geometry">
            <mxPoint x="410" y="310" as="sourcePoint" />
            <mxPoint x="330" y="230" as="targetPoint" />
            <Array as="points" />
          </mxGeometry>
        </mxCell>
        <mxCell id="2MP1ZzmQzvETcW9dQaeT-58" value="mengelola data peminjaman" style="rhombus;whiteSpace=wrap;html=1;" vertex="1" parent="1">
          <mxGeometry x="110" y="400" width="140" height="70" as="geometry" />
        </mxCell>
        <mxCell id="2MP1ZzmQzvETcW9dQaeT-59" value="" style="endArrow=classic;html=1;rounded=0;exitX=0;exitY=0.5;exitDx=0;exitDy=0;entryX=1;entryY=0.5;entryDx=0;entryDy=0;" edge="1" parent="1" source="2MP1ZzmQzvETcW9dQaeT-53" target="2MP1ZzmQzvETcW9dQaeT-58">
          <mxGeometry width="50" height="50" relative="1" as="geometry">
            <mxPoint x="359" y="290" as="sourcePoint" />
            <mxPoint x="350" y="430" as="targetPoint" />
          </mxGeometry>
        </mxCell>
        <mxCell id="2MP1ZzmQzvETcW9dQaeT-60" value="kepala sekolah" style="rounded=0;whiteSpace=wrap;html=1;" vertex="1" parent="1">
          <mxGeometry x="40" y="562.5" width="120" height="40" as="geometry" />
        </mxCell>
        <mxCell id="2MP1ZzmQzvETcW9dQaeT-61" value="" style="endArrow=classic;html=1;rounded=0;entryX=0.25;entryY=1;entryDx=0;entryDy=0;" edge="1" parent="1" source="2MP1ZzmQzvETcW9dQaeT-58" target="2MP1ZzmQzvETcW9dQaeT-1">
          <mxGeometry width="50" height="50" relative="1" as="geometry">
            <mxPoint x="230" y="350" as="sourcePoint" />
            <mxPoint x="90" y="380" as="targetPoint" />
            <Array as="points">
              <mxPoint x="180" y="328" />
            </Array>
          </mxGeometry>
        </mxCell>
        <mxCell id="QI9Rnf0cK9D8R6iDUaha-1" value="id" style="ellipse;whiteSpace=wrap;html=1;" vertex="1" parent="1">
          <mxGeometry x="90" y="-90" width="70" height="50" as="geometry" />
        </mxCell>
        <mxCell id="QI9Rnf0cK9D8R6iDUaha-3" value="laporan" style="rhombus;whiteSpace=wrap;html=1;" vertex="1" parent="1">
          <mxGeometry x="340" y="550" width="110" height="65" as="geometry" />
        </mxCell>
        <mxCell id="QI9Rnf0cK9D8R6iDUaha-6" value="" style="endArrow=classic;html=1;rounded=0;exitX=0.417;exitY=1.05;exitDx=0;exitDy=0;exitPerimeter=0;entryX=1;entryY=0;entryDx=0;entryDy=0;" edge="1" parent="1" source="2MP1ZzmQzvETcW9dQaeT-53" target="QI9Rnf0cK9D8R6iDUaha-3">
          <mxGeometry width="50" height="50" relative="1" as="geometry">
            <mxPoint x="500" y="230" as="sourcePoint" />
            <mxPoint x="440" y="530" as="targetPoint" />
            <Array as="points">
              <mxPoint x="490" y="520" />
            </Array>
          </mxGeometry>
        </mxCell>
        <mxCell id="QI9Rnf0cK9D8R6iDUaha-7" value="" style="endArrow=classic;html=1;rounded=0;entryX=1;entryY=0.5;entryDx=0;entryDy=0;exitX=0;exitY=0.5;exitDx=0;exitDy=0;" edge="1" parent="1" source="QI9Rnf0cK9D8R6iDUaha-3" target="2MP1ZzmQzvETcW9dQaeT-60">
          <mxGeometry width="50" height="50" relative="1" as="geometry">
            <mxPoint x="490" y="250" as="sourcePoint" />
            <mxPoint x="440" y="250" as="targetPoint" />
            <Array as="points" />
          </mxGeometry>
        </mxCell>
        <mxCell id="QI9Rnf0cK9D8R6iDUaha-8" value="id" style="ellipse;whiteSpace=wrap;html=1;" vertex="1" parent="1">
          <mxGeometry x="550" y="-50" width="70" height="40" as="geometry" />
        </mxCell>
        <mxCell id="QI9Rnf0cK9D8R6iDUaha-9" value="nama barang" style="ellipse;whiteSpace=wrap;html=1;" vertex="1" parent="1">
          <mxGeometry x="610" y="10" width="70" height="40" as="geometry" />
        </mxCell>
        <mxCell id="QI9Rnf0cK9D8R6iDUaha-10" value="kategori" style="ellipse;whiteSpace=wrap;html=1;" vertex="1" parent="1">
          <mxGeometry x="690" y="50" width="70" height="40" as="geometry" />
        </mxCell>
        <mxCell id="QI9Rnf0cK9D8R6iDUaha-11" value="jumlah" style="ellipse;whiteSpace=wrap;html=1;" vertex="1" parent="1">
          <mxGeometry x="500" y="10" width="61" height="50" as="geometry" />
        </mxCell>
        <mxCell id="QI9Rnf0cK9D8R6iDUaha-12" value="tgl kembali" style="ellipse;whiteSpace=wrap;html=1;" vertex="1" parent="1">
          <mxGeometry x="10" y="280" width="70" height="40" as="geometry" />
        </mxCell>
        <mxCell id="QI9Rnf0cK9D8R6iDUaha-13" value="tanggal pinjam" style="ellipse;whiteSpace=wrap;html=1;" vertex="1" parent="1">
          <mxGeometry x="20" y="370" width="70" height="40" as="geometry" />
        </mxCell>
        <mxCell id="QI9Rnf0cK9D8R6iDUaha-14" value="id barang" style="ellipse;whiteSpace=wrap;html=1;" vertex="1" parent="1">
          <mxGeometry x="80" y="270" width="70" height="40" as="geometry" />
        </mxCell>
        <mxCell id="QI9Rnf0cK9D8R6iDUaha-15" value="" style="endArrow=none;html=1;rounded=0;exitX=0.5;exitY=1;exitDx=0;exitDy=0;entryX=0;entryY=0;entryDx=0;entryDy=0;" edge="1" parent="1" source="QI9Rnf0cK9D8R6iDUaha-13" target="2MP1ZzmQzvETcW9dQaeT-58">
          <mxGeometry width="50" height="50" relative="1" as="geometry">
            <mxPoint x="80" y="450" as="sourcePoint" />
            <mxPoint x="39" y="506" as="targetPoint" />
            <Array as="points" />
          </mxGeometry>
        </mxCell>
        <mxCell id="QI9Rnf0cK9D8R6iDUaha-16" value="" style="endArrow=none;html=1;rounded=0;entryX=0.5;entryY=1;entryDx=0;entryDy=0;exitX=0;exitY=0;exitDx=0;exitDy=0;" edge="1" parent="1" source="2MP1ZzmQzvETcW9dQaeT-58" target="QI9Rnf0cK9D8R6iDUaha-14">
          <mxGeometry width="50" height="50" relative="1" as="geometry">
            <mxPoint x="110" y="430" as="sourcePoint" />
            <mxPoint x="55" y="446" as="targetPoint" />
          </mxGeometry>
        </mxCell>
        <mxCell id="QI9Rnf0cK9D8R6iDUaha-17" value="" style="endArrow=none;html=1;rounded=0;exitX=1;exitY=0.5;exitDx=0;exitDy=0;" edge="1" parent="1" source="QI9Rnf0cK9D8R6iDUaha-3">
          <mxGeometry width="50" height="50" relative="1" as="geometry">
            <mxPoint x="390" y="300" as="sourcePoint" />
            <mxPoint x="520" y="580" as="targetPoint" />
            <Array as="points">
              <mxPoint x="520" y="580" />
              <mxPoint x="540" y="560" />
            </Array>
          </mxGeometry>
        </mxCell>
        <mxCell id="QI9Rnf0cK9D8R6iDUaha-18" value="data peminjaman" style="ellipse;whiteSpace=wrap;html=1;" vertex="1" parent="1">
          <mxGeometry x="530" y="510" width="90" height="67.5" as="geometry" />
        </mxCell>
        <mxCell id="QI9Rnf0cK9D8R6iDUaha-19" value="" style="endArrow=none;html=1;rounded=0;exitX=0.333;exitY=0;exitDx=0;exitDy=0;exitPerimeter=0;" edge="1" parent="1" source="2MP1ZzmQzvETcW9dQaeT-53">
          <mxGeometry width="50" height="50" relative="1" as="geometry">
            <mxPoint x="390" y="300" as="sourcePoint" />
            <mxPoint x="470" y="350" as="targetPoint" />
          </mxGeometry>
        </mxCell>
        <mxCell id="QI9Rnf0cK9D8R6iDUaha-20" value="id" style="ellipse;whiteSpace=wrap;html=1;" vertex="1" parent="1">
          <mxGeometry x="440" y="300" width="60" height="50" as="geometry" />
        </mxCell>
        <mxCell id="QI9Rnf0cK9D8R6iDUaha-21" value="" style="endArrow=none;html=1;rounded=0;" edge="1" parent="1">
          <mxGeometry width="50" height="50" relative="1" as="geometry">
            <mxPoint x="490" y="410" as="sourcePoint" />
            <mxPoint x="530" y="360" as="targetPoint" />
            <Array as="points" />
          </mxGeometry>
        </mxCell>
        <mxCell id="QI9Rnf0cK9D8R6iDUaha-22" value="username" style="ellipse;whiteSpace=wrap;html=1;" vertex="1" parent="1">
          <mxGeometry x="510" y="320" width="80" height="47.5" as="geometry" />
        </mxCell>
        <mxCell id="QI9Rnf0cK9D8R6iDUaha-24" value="" style="endArrow=none;html=1;rounded=0;" edge="1" parent="1">
          <mxGeometry width="50" height="50" relative="1" as="geometry">
            <mxPoint x="490" y="410" as="sourcePoint" />
            <mxPoint x="420" y="360" as="targetPoint" />
          </mxGeometry>
        </mxCell>
        <mxCell id="QI9Rnf0cK9D8R6iDUaha-25" value="password" style="ellipse;whiteSpace=wrap;html=1;" vertex="1" parent="1">
          <mxGeometry x="359" y="317.5" width="70" height="50" as="geometry" />
        </mxCell>
      </root>
    </mxGraphModel>
  </diagram>
</mxfile>
